<?xml version="1.0" standalone="no"?>
<!DOCTYPE svg PUBLIC "-//W3C//DTD SVG 20010904//EN"
 "http://www.w3.org/TR/2001/REC-SVG-20010904/DTD/svg10.dtd">
<svg version="1.0" xmlns="http://www.w3.org/2000/svg"
 width="300.000000pt" height="300.000000pt" viewBox="0 0 300.000000 300.000000"
 preserveAspectRatio="xMidYMid meet">
<metadata>
Created by potrace 1.10, written by Peter Selinger 2001-2011
</metadata>
<g transform="translate(0.000000,300.000000) scale(0.100000,-0.100000)"
fill="#000000" stroke="none">
<path d="M1698 2639 c-11 -6 -18 -22 -18 -40 0 -34 1 -34 135 -74 412 -123
705 -514 705 -940 0 -67 3 -85 18 -98 26 -24 49 -21 68 8 14 22 16 41 10 123
-14 181 -50 312 -129 464 -136 264 -374 456 -671 542 -100 29 -95 29 -118 15z
m553 -311 c41 -40 86 -89 98 -108 14 -21 1 -10 -33 27 -31 34 -85 88 -119 119
-34 31 -53 51 -42 46 11 -6 54 -43 96 -84z"/>
<path d="M960 2422 c-166 -44 -280 -174 -311 -355 -23 -138 7 -280 100 -472
183 -379 581 -810 886 -960 232 -114 450 -96 594 47 97 98 159 278 117 343
-16 25 -133 89 -257 140 -83 34 -199 75 -215 75 -22 0 -74 -51 -110 -107 -43
-68 -69 -81 -115 -58 -121 62 -315 241 -401 371 -55 82 -134 245 -142 291 -7
41 12 60 93 92 33 13 72 36 87 52 25 26 26 33 21 87 -10 96 -68 343 -91 392
-38 79 -118 98 -256 62z m163 -33 c50 -14 68 -50 105 -224 42 -194 47 -232 31
-251 -7 -9 -42 -31 -78 -49 -96 -48 -115 -72 -109 -134 11 -111 151 -345 288
-481 82 -82 227 -191 285 -215 61 -26 80 -15 184 115 31 39 37 42 70 37 91
-12 395 -153 413 -192 40 -88 -78 -293 -205 -354 -121 -59 -301 -48 -452 28
-326 165 -738 623 -901 1005 -88 208 -96 365 -24 512 54 111 151 183 270 203
76 12 80 12 123 0z"/>
<path d="M1676 2354 c-36 -35 -17 -58 72 -88 294 -100 468 -323 497 -639 7
-69 10 -80 31 -89 19 -9 28 -8 44 7 26 23 26 88 1 211 -58 280 -254 500 -530
595 -66 23 -95 24 -115 3z m439 -271 c54 -67 65 -87 19 -33 -21 25 -61 67 -89
94 -46 45 -47 47 -9 18 23 -17 58 -53 79 -79z"/>
<path d="M1650 2064 c-23 -27 -1 -65 45 -79 148 -44 250 -163 262 -307 7 -81
16 -98 54 -98 45 0 56 33 41 123 -26 153 -118 277 -254 342 -78 38 -128 44
-148 19z"/>
</g>
</svg>
